<svg xmlns="http://www.w3.org/2000/svg" xmlns:xlink="http://www.w3.org/1999/xlink" aria-hidden="true" role="img" class="iconify iconify--logos" width="37.07" height="36" preserveAspectRatio="xMidYMid meet" viewBox="0 0 256 198"><path fill="#41B883" d="M204.8 0H256L128 220.8L0 0h97.92L128 51.2L157.44 0h47.36Z"></path><path fill="#41B883" d="m0 0l128 220.8L256 0h-51.2L128 132.48L50.56 0H0Z"></path><path fill="#35495E" d="M50.56 0L128 133.12L204.8 0h-47.36L128 51.2L97.92 0H50.56Z"></path></svg>
<svg xmlns="http://www.w3.org/2000/svg" viewBox="0 0 448 512"><!--!Font Awesome Free 6.7.2 by @fontawesome - https://fontawesome.com License - https://fontawesome.com/license/free Copyright 2025 Fonticons, Inc.--><path d="M304 128a80 80 0 1 0 -160 0 80 80 0 1 0 160 0zM96 128a128 128 0 1 1 256 0A128 128 0 1 1 96 128zM49.3 464l349.5 0c-8.9-63.3-63.3-112-129-112l-91.4 0c-65.7 0-120.1 48.7-129 112zM0 482.3C0 383.8 79.8 304 178.3 304l91.4 0C368.2 304 448 383.8 448 482.3c0 16.4-13.3 29.7-29.7 29.7L29.7 512C13.3 512 0 498.7 0 482.3z"/></svg>